General                          : ChattChitto RG - Movies
==========
Complete name                    : Gangs Of New York 2002 BDRip.mp4
Format                           : MPEG-4
Format profile                   : Base Media
Codec ID                         : isom
File size                        : 2.97 GiB
Duration                         : 2h 46mn
Overall bit rate                 : 2 549 Kbps
Encoded date                     : UTC 2010-04-07 13:52:24

Video
==========
ID                               : 1
Format                           : AVC
Format/Info                      : Advanced Video Codec
Format profile                   : High@L3.1
Format settings, CABAC           : Yes
Format settings, ReFrames        : 3 frames
Codec ID                         : avc1
Codec ID/Info                    : Advanced Video Coding
Duration                         : 2h 46mn
Bit rate mode                    : Variable
Bit rate                         : 2 200 Kbps
Maximum bit rate                 : 14.8 Mbps
Width                            : 1 280 pixels
Height                           : 544 pixels
Display aspect ratio             : 2.35:1
Frame rate mode                  : Constant
Frame rate                       : 23.976 fps
Resolution                       : 8 bits
Colorimetry                      : 4:2:0
Scan type                        : Progressive
Bits/(Pixel*Frame)               : 0.132
Stream size                      : 2.56 GiB (86%)
Writing library                  : x264 core 76 r1271 496d79d
Encoded date                     : UTC 2010-04-07 04:35:06

Audio
==========
ID                               : 2
Format                           : AAC
Format/Info                      : Advanced Audio Codec
Format version                   : Version 4
Format profile                   : LC
Format settings, SBR             : No
Codec ID                         : 40
Duration                         : 2h 46mn
Bit rate mode                    : Variable
Bit rate                         : 352.8 Kbps
Maximum bit rate                 : 444 Kbps
Channel(s)                       : 6 channels
Channel positions                : Front: L C R, Side: L R, LFE
Sampling rate                    : 48.0 KHz
Stream size                      : 412 MiB (14%)
Encoded date                     : UTC 2010-04-07 13:53:58

Subtitles                        : English | Spanish




----------------------------------------------------
IMDB Link: http://www.imdb.com/title/tt0217505/
----------------------------------------------------


Screen Shots:
==============
http://bayimg.com/EaLbGaacN
http://bayimg.com/EAlBhAacN
http://bayimg.com/eALbfAacN
http://bayimg.com/EALBeAaCN
http://bayimg.com/ealbdaAcN



Plot:
======
Set in New York City, 1840-1863, a young man named Amsterdam (Leonardo DiCaprio) seeks vengeance against Bill  'The Butcher' Poole (Daniel Day-Lewis), the man who killed his father. Though he secures the help of pickpocket Jenny Everdeane (Cameron Diaz), the task at hand may be more dangerous than Amsterdam ever imagined when he realizes that his father was murdered as a result of gang warfare between the powerful Manhattan Irish and Italian gangs. Amid the crooked cops and corrupt politicians of the Tammany Hall era, political enforcer Bill Poole stands out as only one scoundrel in the crime-plagued Five Points section of lower Manhattan in the early 1860s.




Release Info:
==============
original name .... : Gangs Of New York 2002 BDRip.mp4
ripper.............: Recalled2Life (R2L)
encoder............: Recalled2Life (R2L)
video codec........: H264/.MP4                   
video bitrate......: 2200 Kbps
audio codec........: AAC-LC
aspect ratio.......: 2.35:1
resolution.........: 1280 x 544
genre..............: Crime | Drama | History         
runtime............: 2h 46mn
language...........: English
subtitles..........: English | Spanish
sample.............: Yes [7.74 MB]
2ch Audio..........: 2ch Audio for XBox Viewers 



Source:
========
Gangs Of New York Blu-Ray 1080p MPEG-4 AVC/LPCM 5.1 [33.5 GB]


Notes:
=======
ChattChitto RG Encourages Burning this Film with ConvertXtoDVD.
Enhanced and Filtered for your viewing pleasure ;)